<?xml version="1.0" standalone="no"?>
<!DOCTYPE svg PUBLIC "-//W3C//DTD SVG 20010904//EN"
 "http://www.w3.org/TR/2001/REC-SVG-20010904/DTD/svg10.dtd">
<svg version="1.0" xmlns="http://www.w3.org/2000/svg"
 width="1280.000000pt" height="1280.000000pt" viewBox="0 0 1280.000000 1280.000000"
 preserveAspectRatio="xMidYMid meet">
<metadata>
Created by potrace 1.14, written by Peter Selinger 2001-2017
</metadata>
<g transform="translate(0.000000,1280.000000) scale(0.100000,-0.100000)"
fill="#000000" stroke="none">
<path d="M9620 9425 c0 -3 12 -24 26 -47 40 -62 80 -164 100 -253 18 -77 19
-187 19 -2805 l0 -2725 -28 -90 c-98 -311 -326 -520 -635 -581 -111 -21 -5493
-21 -5605 0 -75 15 -217 66 -247 89 -13 11 -13 10 0 -7 8 -11 49 -46 90 -79
83 -67 201 -127 300 -154 61 -17 216 -18 2850 -18 2637 0 2788 1 2850 18 181
49 352 166 455 312 57 81 89 147 122 252 l28 88 0 2725 c0 2621 -1 2728 -19
2805 -33 145 -99 271 -200 382 -46 51 -106 101 -106 88z"/>
<path d="M8355 8845 c-1736 -66 -2484 -85 -3695 -94 l-915 -6 0 -25 0 -25 355
-5 c734 -10 2142 12 3160 50 263 10 952 33 1355 46 116 4 218 11 228 16 11 6
17 18 15 31 -3 20 -9 22 -83 23 -44 1 -233 -4 -420 -11z"/>
<path d="M8605 8004 c-11 -1 -186 -8 -390 -14 -203 -6 -482 -15 -620 -20
-1109 -42 -2041 -62 -2989 -64 -799 -2 -850 -3 -860 -20 -9 -13 -7 -20 9 -33
39 -30 2199 -5 3495 42 228 8 631 22 895 30 264 9 532 19 595 23 114 7 115 7
115 32 l0 25 -115 1 c-63 1 -124 0 -135 -2z"/>
<path d="M8715 7163 c-27 -1 -324 -12 -660 -23 -335 -11 -803 -27 -1040 -35
-856 -29 -1298 -37 -2275 -44 l-995 -6 0 -25 0 -25 240 -8 c497 -16 2590 19
3485 58 69 3 328 12 575 20 694 22 789 27 803 38 17 13 15 44 -4 51 -9 3 -30
5 -47 4 -18 -1 -54 -3 -82 -5z"/>
<path d="M8355 6305 c-187 -8 -482 -18 -655 -24 -173 -6 -441 -16 -595 -21
-683 -25 -1569 -41 -2425 -46 -551 -4 -929 -10 -935 -15 -6 -6 -6 -16 1 -27
11 -16 74 -17 985 -16 940 1 1394 8 2299 39 234 8 632 22 885 30 765 26 927
33 937 43 6 6 8 18 6 28 -4 25 -56 25 -503 9z"/>
<path d="M8605 5464 c-11 -1 -186 -8 -390 -14 -203 -6 -482 -15 -620 -20
-1109 -42 -2041 -62 -2989 -64 -799 -2 -850 -3 -860 -20 -9 -13 -7 -20 9 -33
39 -30 2199 -5 3495 42 228 8 631 22 895 30 264 9 532 19 595 23 114 7 115 7
115 32 l0 25 -115 1 c-63 1 -124 0 -135 -2z"/>
<path d="M8715 4623 c-46 -2 -481 -17 -1705 -58 -851 -28 -1361 -38 -2310 -44
-919 -6 -955 -7 -958 -25 -2 -10 0 -22 5 -27 15 -15 1543 -11 2254 6 661 15
1192 31 1404 40 107 5 605 22 1210 41 116 4 218 11 228 16 21 11 22 44 1 52
-9 3 -30 5 -47 4 -18 -1 -54 -3 -82 -5z"/>
<path d="M8605 3774 c-11 -1 -184 -8 -385 -14 -201 -6 -545 -17 -765 -25
-1199 -44 -1838 -57 -2839 -59 -778 -2 -860 -4 -870 -18 -7 -12 -6 -21 5 -34
13 -16 69 -17 939 -11 916 6 1759 23 2560 52 228 8 631 22 895 30 264 9 532
19 595 23 114 7 115 7 115 32 l0 25 -115 1 c-63 1 -124 0 -135 -2z"/>
</g>
</svg>
